<?xml version="1.0" encoding="UTF-8"?>
<svg version="1.1" xmlns="http://www.w3.org/2000/svg" width="172" height="35">
<path d="M0 0 C4.91411484 3.23884842 7.39270772 6.92718923 8.63671875 12.6171875 C8.84384062 16.63106652 7.4990214 20.24034612 5.75 23.8125 C5.09 24.4725 4.43 25.1325 3.75 25.8125 C5.73 26.4725 7.71 27.1325 9.75 27.8125 C9.75 29.7925 9.75 31.7725 9.75 33.8125 C-1.14 33.8125 -12.03 33.8125 -23.25 33.8125 C-23.25 31.5025 -23.25 29.1925 -23.25 26.8125 C-21.27 26.4825 -19.29 26.1525 -17.25 25.8125 C-17.889375 25.214375 -18.52875 24.61625 -19.1875 24 C-22.57631312 20.40580427 -22.60005973 16.87242359 -22.5234375 12.16015625 C-21.99761266 7.64557439 -20.14814531 4.43673573 -16.70703125 1.4921875 C-11.24805786 -2.08050447 -6.14838779 -2.24652631 0 0 Z " fill="#1D955E" transform="translate(23.25,1.1875)"/>
<path d="M0 0 C3.29110633 2.10070617 4.8333853 3.75007795 7 7 C7.73981114 11.99802641 7.51803233 15.96393533 5.25 20.5 C2.53012328 23.52208524 0.61407187 24.80082767 -3.4375 25.30078125 C-4.283125 25.30464844 -5.12875 25.30851562 -6 25.3125 C-6.845625 25.32925781 -7.69125 25.34601562 -8.5625 25.36328125 C-11.48770804 24.92731274 -12.87212211 24.02443938 -15 22 C-15 21.34 -15 20.68 -15 20 C-14.34 20 -13.68 20 -13 20 C-13.02320313 19.15695313 -13.04640625 18.31390625 -13.0703125 17.4453125 C-13.08835937 16.34960938 -13.10640625 15.25390625 -13.125 14.125 C-13.14820313 13.03445312 -13.17140625 11.94390625 -13.1953125 10.8203125 C-13 8 -13 8 -11 6 C-8.66702567 5.95907063 -6.33294775 5.95758277 -4 6 C-3.67 5.67 -3.34 5.34 -3 5 C-6.3 5 -9.6 5 -13 5 C-10.44669551 -2.11277679 -6.8463041 -1.551671 0 0 Z " fill="#B8E574" transform="translate(22,3)"/>
<path d="M0 0 C2.31 0 4.62 0 7 0 C7.99 2.64 8.98 5.28 10 8 C10.99 5.36 11.98 2.72 13 0 C15.31 0 17.62 0 20 0 C20 6.27 20 12.54 20 19 C18.35 19 16.7 19 15 19 C14.67 17.35 14.34 15.7 14 14 C13.34 15.65 12.68 17.3 12 19 C10.35 19 8.7 19 7 19 C6.34 17.35 5.68 15.7 5 14 C4.34 15.65 3.68 17.3 3 19 C1.68 19 0.36 19 -1 19 C-1.02697137 16.39576408 -1.04682489 13.79180756 -1.0625 11.1875 C-1.07087891 10.44951172 -1.07925781 9.71152344 -1.08789062 8.95117188 C-1.10259828 5.70077932 -1.03531702 3.10595105 0 0 Z " fill="#FFFFFF" transform="translate(56,7)"/>
<path d="M0 0 C1.98 0 3.96 0 6 0 C7.00605593 2.60197202 8.00502525 5.20629362 9 7.8125 C9.28617188 8.55048828 9.57234375 9.28847656 9.8671875 10.04882812 C10.13789063 10.76103516 10.40859375 11.47324219 10.6875 12.20703125 C10.93886719 12.8616333 11.19023437 13.51623535 11.44921875 14.19067383 C12 16 12 16 12 19 C10.35 19 8.7 19 7 19 C6.67 17.35 6.34 15.7 6 14 C4.02 14 2.04 14 0 14 C-0.33 15.65 -0.66 17.3 -1 19 C-2.65 19 -4.3 19 -6 19 C-4.70024676 12.28460827 -2.70071112 6.27980887 0 0 Z M2 7 C2 7.99 2 8.98 2 10 C2.66 10 3.32 10 4 10 C3.67 9.01 3.34 8.02 3 7 C2.67 7 2.34 7 2 7 Z " fill="#FFFFFF" transform="translate(140,7)"/>
<path d="M0 0 C4.29 0 8.58 0 13 0 C13 1.32 13 2.64 13 4 C10.36 4 7.72 4 5 4 C5 4.99 5 5.98 5 7 C7.64 7 10.28 7 13 7 C13 8.32 13 9.64 13 11 C10.36 11 7.72 11 5 11 C5 12.32 5 13.64 5 15 C7.97 15 10.94 15 14 15 C13.67 16.32 13.34 17.64 13 19 C8.71 19 4.42 19 0 19 C0 12.73 0 6.46 0 0 Z " fill="#FFFFFF" transform="translate(104,7)"/>
<path d="M0 0 C10.17966102 -0.48474576 10.17966102 -0.48474576 13.75 1.625 C15 4 15 4 15 7.0625 C13.85614006 10.42258858 13.15070125 11.42464938 10 13 C7.25 13.1875 7.25 13.1875 5 13 C5 14.98 5 16.96 5 19 C3.35 19 1.7 19 0 19 C0 12.73 0 6.46 0 0 Z M5 4 C5 5.65 5 7.3 5 9 C6.65 8.34 8.3 7.68 10 7 C9.67 6.01 9.34 5.02 9 4 C7.68 4 6.36 4 5 4 Z " fill="#FFFFFF" transform="translate(120,7)"/>
<path d="M0 0 C0.91007812 0.00902344 1.82015625 0.01804687 2.7578125 0.02734375 C3.45648438 0.03894531 4.15515625 0.05054688 4.875 0.0625 C4.875 1.7125 4.875 3.3625 4.875 5.0625 C2.565 5.0625 0.255 5.0625 -2.125 5.0625 C-1.63128906 5.37703125 -1.13757812 5.6915625 -0.62890625 6.015625 C0.01175781 6.44359375 0.65242188 6.8715625 1.3125 7.3125 C2.26962891 7.93898438 2.26962891 7.93898438 3.24609375 8.578125 C5.20304363 10.36143664 5.57475781 11.45867545 5.875 14.0625 C4.88474907 16.72856019 4.4472047 17.77639765 1.875 19.0625 C-0 19.1953125 -0 19.1953125 -2.125 19.1875 C-3.176875 19.19136719 -3.176875 19.19136719 -4.25 19.1953125 C-6.125 19.0625 -6.125 19.0625 -8.125 18.0625 C-8.125 16.4125 -8.125 14.7625 -8.125 13.0625 C-5.815 13.3925 -3.505 13.7225 -1.125 14.0625 C-0.795 13.4025 -0.465 12.7425 -0.125 12.0625 C-1.07375 11.77375 -2.0225 11.485 -3 11.1875 C-6.125 10.0625 -6.125 10.0625 -8.125 8.0625 C-7.875 4.5 -7.875 4.5 -7.125 1.0625 C-4.60024538 -0.19987731 -2.81299534 -0.03606404 0 0 Z " fill="#FFFFFF" transform="translate(47.125,6.9375)"/>
<path d="M0 0 C2.8125 -0.3125 2.8125 -0.3125 6 0 C7.875 2.5 7.875 2.5 9 5 C9.37125 4.175 9.7425 3.35 10.125 2.5 C10.74375 1.675 11.3625 0.85 12 0 C15.1875 -0.3125 15.1875 -0.3125 18 0 C17.01461122 2.65296979 16.05762201 4.91702431 14.4375 7.25 C12.44507706 11.06159171 12.26826514 14.7540104 12 19 C10.35 19 8.7 19 7 19 C6.773125 17.72125 6.54625 16.4425 6.3125 15.125 C5.11202099 9.61331172 2.69206281 4.92174841 0 0 Z " fill="#FFFFFF" transform="translate(150,7)"/>
<path d="M0 0 C1.32 0 2.64 0 4 0 C4 0.99 4 1.98 4 3 C4.66 3 5.32 3 6 3 C6 2.01 6 1.02 6 0 C7.32 0 8.64 0 10 0 C10 0.99 10 1.98 10 3 C10.66 3 11.32 3 12 3 C12 2.01 12 1.02 12 0 C13.32 0 14.64 0 16 0 C16 0.99 16 1.98 16 3 C16.66 3 17.32 3 18 3 C18 2.01 18 1.02 18 0 C21.63 0 25.26 0 29 0 C29.33 1.65 29.66 3.3 30 5 C19.44 5 8.88 5 -2 5 C-2 4.34 -2 3.68 -2 3 C-1.34 3 -0.68 3 0 3 C0 2.01 0 1.02 0 0 Z " fill="#54A960" transform="translate(2,30)"/>
<path d="M0 0 C1.65 0 3.3 0 5 0 C5 4.95 5 9.9 5 15 C7.64 15 10.28 15 13 15 C13 16.32 13 17.64 13 19 C8.71 19 4.42 19 0 19 C0 12.73 0 6.46 0 0 Z " fill="#FFFFFF" transform="translate(89,7)"/>
<path d="M0 0 C0.66 0.33 1.32 0.66 2 1 C1.01 2.485 1.01 2.485 0 4 C3.3 4 6.6 4 10 4 C10 7.3 10 10.6 10 14 C9.67 14 9.34 14 9 14 C9 11.03 9 8.06 9 5 C4.65815798 5.18464366 4.65815798 5.18464366 1 7 C0.76572222 9.01594582 0.58663876 11.038474 0.4375 13.0625 C0.35371094 14.16722656 0.26992187 15.27195312 0.18359375 16.41015625 C0.12300781 17.26480469 0.06242188 18.11945312 0 19 C-0.99 19.33 -1.98 19.66 -3 20 C-5.65674502 15.46139393 -6.65728029 12.2582423 -6 7 C-2.92307692 1.46153846 -2.92307692 1.46153846 0 0 Z " fill="#788041" transform="translate(9,4)"/>
<path d="M0 0 C1.65 0 3.3 0 5 0 C5 6.27 5 12.54 5 19 C3.35 19 1.7 19 0 19 C0 12.73 0 6.46 0 0 Z " fill="#FFFFFF" transform="translate(80,7)"/>
<path d="M0 0 C0.33 0.66 0.66 1.32 1 2 C-0.01320313 2.18175781 -0.01320313 2.18175781 -1.046875 2.3671875 C-1.93890625 2.53476562 -2.8309375 2.70234375 -3.75 2.875 C-5.07257812 3.11863281 -5.07257812 3.11863281 -6.421875 3.3671875 C-10.12640774 4.2764819 -12.35019832 5.1877479 -14.75 8.1875 C-16.33571392 11.75535633 -16.40806867 14.12334759 -16 18 C-14.60393771 21.29978359 -12.98626466 24.020603 -11 27 C-14.26189156 26.4376049 -15.91134848 25.5859495 -18 23 C-19.53752988 18.38741035 -19.86704551 13.67948401 -18.3515625 8.99609375 C-14.40631847 1.18990579 -8.28176038 -0.58117617 0 0 Z " fill="#10945D" transform="translate(20,0)"/>
<path d="M0 0 C0.94875 0.825 1.8975 1.65 2.875 2.5 C7.38941118 5.79079255 11.61456845 5.48761453 17 5 C14.66637744 7.43969631 13.22800755 8.88875193 9.7578125 9.203125 C8.45457031 9.22632813 8.45457031 9.22632813 7.125 9.25 C5.82949219 9.28867187 5.82949219 9.28867187 4.5078125 9.328125 C1.51774897 8.93690173 0.16120725 8.07073811 -2 6 C-2 5.34 -2 4.68 -2 4 C-1.34 4 -0.68 4 0 4 C0 2.68 0 1.36 0 0 Z " fill="#B5BC57" transform="translate(9,19)"/>
<path d="M0 0 C0 0.99 0 1.98 0 3 C-0.66 3 -1.32 3 -2 3 C-2 2.01 -2 1.02 -2 0 C-3.32 0 -4.64 0 -6 0 C-6 0.99 -6 1.98 -6 3 C-6.66 3 -7.32 3 -8 3 C-8 2.01 -8 1.02 -8 0 C-9.32 0 -10.64 0 -12 0 C-12 0.99 -12 1.98 -12 3 C-12.66 3 -13.32 3 -14 3 C-14 2.01 -14 1.02 -14 0 C-15.32 0 -16.64 0 -18 0 C-18 0.99 -18 1.98 -18 3 C-18.66 3 -19.32 3 -20 3 C-20 1.35 -20 -0.3 -20 -2 C-12.61557234 -3.32919698 -7.03004485 -2.10901345 0 0 Z " fill="#197C50" transform="translate(20,30)"/>
<path d="M0 0 C1.32 0 2.64 0 4 0 C6.15942819 3.23914229 6.27232978 4.24859733 6.25 8 C6.25515625 8.86625 6.2603125 9.7325 6.265625 10.625 C6 13 6 13 4 16 C3.34 16 2.68 16 2 16 C2 11.05 2 6.1 2 1 C1.34 0.67 0.68 0.34 0 0 Z " fill="#BFF17A" transform="translate(23,7)"/>
<path d="M0 0 C0.66 0 1.32 0 2 0 C2 4.95 2 9.9 2 15 C0.39125 15.04125 -1.2175 15.0825 -2.875 15.125 C-3.77992187 15.14820313 -4.68484375 15.17140625 -5.6171875 15.1953125 C-8 15 -8 15 -10 13 C-10.26991906 10.31160615 -10.08737357 7.70858064 -10 5 C-9.67 5 -9.34 5 -9 5 C-8.67 7.31 -8.34 9.62 -8 12 C-5.36 12.33 -2.72 12.66 0 13 C0 8.71 0 4.42 0 0 Z " fill="#2C3828" transform="translate(23,8)"/>
<path d="M0 0 C2 3 4 6 6 9 C3.68001641 8.60000283 2.13676576 8.09432121 0.1875 6.75 C-1 5 -1 5 -0.6875 2.3125 C-0.460625 1.549375 -0.23375 0.78625 0 0 Z " fill="#209C59" transform="translate(3,18)"/>
<path d="M0 0 C1.66611905 -0.042721 3.33382885 -0.04063832 5 0 C6 1 6 1 6.0625 4.0625 C6.041875 5.031875 6.02125 6.00125 6 7 C4 4 4 4 4 2 C2.35 2 0.7 2 -1 2 C-0.67 1.34 -0.34 0.68 0 0 Z " fill="#0A9162" transform="translate(27,28)"/>
</svg>
